<svg width="16" height="17" viewBox="0 0 16 17" fill="none" xmlns="http://www.w3.org/2000/svg">
<path d="M8 0.817871C9.06087 0.817871 10.0783 1.2393 10.8284 1.98944C11.5786 2.73959 12 3.75701 12 4.81787C12 5.87874 11.5786 6.89615 10.8284 7.6463C10.0783 8.39644 9.06087 8.81787 8 8.81787C6.93913 8.81787 5.92172 8.39644 5.17157 7.6463C4.42143 6.89615 4 5.87874 4 4.81787C4 3.75701 4.42143 2.73959 5.17157 1.98944C5.92172 1.2393 6.93913 0.817871 8 0.817871ZM8 2.81787C7.46957 2.81787 6.96086 3.02858 6.58579 3.40366C6.21071 3.77873 6 4.28744 6 4.81787C6 5.3483 6.21071 5.85701 6.58579 6.23208C6.96086 6.60716 7.46957 6.81787 8 6.81787C8.53043 6.81787 9.03914 6.60716 9.41421 6.23208C9.78929 5.85701 10 5.3483 10 4.81787C10 4.28744 9.78929 3.77873 9.41421 3.40366C9.03914 3.02858 8.53043 2.81787 8 2.81787ZM8 9.81787C10.67 9.81787 16 11.1479 16 13.8179V16.8179H0V13.8179C0 11.1479 5.33 9.81787 8 9.81787ZM8 11.7179C5.03 11.7179 1.9 13.1779 1.9 13.8179V14.9179H14.1V13.8179C14.1 13.1779 10.97 11.7179 8 11.7179Z" fill="#000"/>
</svg>
